<?xml version="1.0" standalone="no"?>
<!DOCTYPE svg PUBLIC "-//W3C//DTD SVG 20010904//EN"
 "http://www.w3.org/TR/2001/REC-SVG-20010904/DTD/svg10.dtd">
<svg version="1.0" xmlns="http://www.w3.org/2000/svg"
 width="200.000000pt" height="200.000000pt" viewBox="0 0 200.000000 200.000000"
 preserveAspectRatio="xMidYMid meet">

<g transform="translate(0.000000,200.000000) scale(0.100000,-0.100000)"
fill="#000000" stroke="none">
<path d="M307 1743 c-4 -3 -7 -44 -7 -90 l0 -83 40 -6 c39 -6 47 -19 12 -19
-18 0 -24 -35 -8 -47 5 -3 11 -28 12 -55 4 -64 7 -83 13 -77 2 2 15 -6 28 -18
31 -29 29 -14 -2 24 -28 33 -34 88 -11 107 11 9 20 6 42 -12 67 -56 93 -59
141 -17 18 17 39 31 46 31 7 1 -3 4 -21 8 -45 8 -42 24 10 39 33 10 55 11 94
2 56 -12 125 -53 120 -73 -1 -6 -1 -9 1 -4 3 4 10 4 16 1 7 -3 -7 12 -29 34
-65 63 -130 75 -224 42 -67 -24 -80 -24 -80 -5 0 8 -4 15 -9 15 -5 0 -14 -7
-21 -15 -16 -20 -76 -20 -84 0 -4 10 15 29 62 60 69 46 80 61 18 25 l-34 -21
-7 23 c-15 52 -37 87 -69 112 -38 28 -40 29 -49 19z"/>
<path d="M795 1739 c-4 -6 -5 -11 -4 -13 2 -1 16 -10 32 -19 27 -17 27 -17 27
7 0 31 -41 49 -55 25z"/>
<path d="M559 1613 c-46 -56 -46 -56 -5 -39 21 9 49 16 62 16 27 0 33 19 7 21
-10 1 -21 1 -25 0 -5 0 -8 4 -8 9 0 16 -15 12 -31 -7z"/>
<path d="M510 1298 c-11 -24 -20 -53 -20 -66 0 -13 -4 -21 -9 -17 -5 3 -17 -5
-25 -17 -9 -12 -16 -18 -16 -13 0 5 9 18 20 30 11 11 22 35 26 51 5 25 1 33
-19 47 -28 18 -68 17 -92 -3 -9 -8 -30 -37 -46 -65 -25 -44 -29 -60 -29 -132
0 -46 4 -83 9 -83 5 0 13 -9 16 -20 3 -11 12 -20 18 -20 7 0 17 -11 24 -25 6
-14 7 -25 2 -25 -5 0 -12 7 -15 15 -4 8 -17 15 -30 15 -23 0 -24 -3 -24 -75 0
-41 4 -75 10 -75 5 0 8 21 6 48 -2 26 -2 37 1 25 2 -12 15 -29 29 -37 13 -9
24 -23 24 -31 0 -18 16 -20 27 -2 4 6 23 20 42 30 l33 17 -4 -25 c-6 -27 -1
-30 20 -16 24 15 75 115 87 170 l7 33 -21 -21 c-11 -11 -33 -23 -48 -27 -16
-3 -43 -10 -60 -14 -18 -5 -35 -5 -38 0 -3 4 6 11 19 14 13 3 26 14 28 24 3
11 22 23 46 30 57 17 85 60 90 137 3 42 -2 75 -15 110 -25 66 -47 70 -73 13z
m-50 -33 c0 -2 -10 -9 -22 -15 -22 -11 -22 -10 -4 4 21 17 26 19 26 11z m120
-105 c0 -5 -5 -10 -11 -10 -5 0 -7 5 -4 10 3 6 8 10 11 10 2 0 4 -4 4 -10z
m-177 -42 c-2 -5 -11 -8 -19 -8 -20 0 -18 -27 4 -39 9 -6 12 -11 7 -11 -17 0
-35 22 -35 45 0 14 6 20 24 20 13 0 22 -3 19 -7z m94 -34 c-3 -3 -12 -4 -19
-1 -8 3 -5 6 6 6 11 1 17 -2 13 -5z m3 -29 c-7 -8 -18 -15 -25 -15 -7 0 -18
-7 -25 -15 -7 -8 -20 -15 -29 -14 -11 0 -10 3 5 9 12 4 24 15 27 24 4 9 13 13
21 10 8 -3 17 -1 21 5 3 6 9 11 12 11 3 0 0 -7 -7 -15z m-120 -29 c-7 -7 -13
-7 -20 0 -6 6 -3 10 10 10 13 0 16 -4 10 -10z m3 -128 c12 10 16 9 20 -9 5
-19 8 -20 21 -9 10 8 16 8 16 2 0 -18 -20 -24 -37 -11 -8 7 -25 13 -36 14 -14
0 -23 8 -25 20 -4 20 -4 20 11 0 12 -16 18 -17 30 -7z"/>
<path d="M601 1308 c1 -7 5 -24 9 -38 7 -22 8 -21 9 13 1 20 -3 37 -9 37 -5 0
-10 -6 -9 -12z"/>
<path d="M642 1303 c-20 -39 -26 -166 -19 -418 1 -22 -2 -64 -6 -93 -6 -42 -5
-53 5 -50 10 4 13 46 13 183 l0 178 44 24 c24 12 61 23 83 23 37 0 38 1 38 36
0 42 -15 74 -35 74 -8 0 -20 8 -27 18 -7 10 -28 24 -47 30 -42 15 -39 15 -49
-5z"/>
<path d="M1324 945 c-4 -8 -12 -15 -20 -15 -8 0 -11 -6 -7 -16 3 -9 9 -12 12
-7 3 4 13 9 21 11 8 2 21 8 30 13 12 8 10 9 -8 5 -19 -4 -21 -2 -11 10 8 10 9
14 0 14 -6 0 -14 -7 -17 -15z"/>
<path d="M1380 914 c-14 -13 -19 -24 -12 -24 7 0 10 -4 7 -10 -3 -5 -1 -10 5
-10 7 0 9 8 5 22 -6 16 -4 20 9 15 18 -7 28 4 18 20 -4 6 -16 1 -32 -13z"/>
<path d="M1270 910 c0 -5 5 -10 11 -10 5 0 7 5 4 10 -3 6 -8 10 -11 10 -2 0
-4 -4 -4 -10z"/>
<path d="M1229 855 c-1 -3 -2 -10 -3 -15 0 -6 -7 -15 -15 -19 -9 -6 -10 -11
-2 -15 6 -4 11 -2 11 5 0 8 4 8 13 1 10 -9 18 -6 31 9 9 12 15 23 12 27 -3 3
-6 2 -6 -2 0 -4 -9 -2 -20 4 -11 6 -21 8 -21 5z m25 -30 c-4 -8 -11 -12 -16
-9 -6 4 -5 10 3 15 19 12 19 11 13 -6z"/>
<path d="M1342 843 c-22 -19 -54 -88 -45 -97 3 -3 17 3 31 14 13 11 29 17 35
13 7 -4 8 6 4 29 -3 21 -1 40 6 47 19 19 -8 13 -31 -6z"/>
<path d="M301 748 c-1 -19 4 -28 14 -28 10 0 15 -10 15 -30 0 -22 -4 -28 -15
-24 -13 5 -15 -9 -15 -91 0 -61 4 -94 10 -90 6 4 11 -7 11 -24 1 -29 3 -41 9
-58 1 -5 2 -11 1 -15 0 -5 4 -8 10 -8 5 0 8 -4 5 -8 -2 -4 4 -13 15 -20 23
-15 23 -14 3 27 -9 18 -18 51 -21 74 l-6 42 25 -22 c27 -25 48 -30 49 -10 0 6
4 2 9 -10 7 -17 18 -23 39 -23 29 0 30 2 25 33 -19 101 -18 100 -46 103 -25 2
-27 0 -31 -44 l-3 -47 -2 48 c-2 44 -5 49 -33 59 l-30 10 6 63 c6 52 4 63 -9
68 -9 4 -21 17 -26 29 -8 22 -9 22 -9 -4z"/>
<path d="M1021 726 c-10 -12 -8 -13 8 -9 12 3 18 9 15 14 -7 12 -10 11 -23 -5z"/>
<path d="M828 698 c-7 -7 -31 -14 -53 -14 -22 -1 -41 -7 -44 -15 -2 -7 -19
-26 -37 -43 -27 -26 -64 -104 -64 -137 0 -20 45 -26 107 -14 51 10 68 9 88 -1
29 -15 27 -26 29 124 0 57 -2 106 -6 108 -3 2 -12 -1 -20 -8z"/>
<path d="M536 563 c7 -54 24 -82 24 -41 0 41 -12 88 -22 88 -5 0 -6 -20 -2
-47z"/>
<path d="M485 513 c8 -65 16 -80 33 -60 13 15 16 35 14 85 -2 27 -6 32 -28 32
-26 0 -26 0 -19 -57z"/>
<path d="M395 330 c3 -5 8 -10 11 -10 2 0 4 5 4 10 0 6 -5 10 -11 10 -5 0 -7
-4 -4 -10z"/>
</g>
</svg>
